<?xml version="1.0" encoding="utf-8"?>
<!-- Generator: Adobe Illustrator 16.0.0, SVG Export Plug-In . SVG Version: 6.00 Build 0)  -->
<!DOCTYPE svg PUBLIC "-//W3C//DTD SVG 1.1//EN" "http://www.w3.org/Graphics/SVG/1.1/DTD/svg11.dtd">
<svg version="1.1" id="Layer_1" xmlns="http://www.w3.org/2000/svg" xmlns:xlink="http://www.w3.org/1999/xlink" x="0px" y="0px"
	 width="241.579px" height="93.157px" viewBox="0 0 241.579 93.157" enable-background="new 0 0 241.579 93.157"
	 xml:space="preserve">
<g>
	<path fill="#E5E5E5" d="M237.162,31.33c0,7.191-1.035,14.325-3.1,21.4c-2.069,7.078-5.035,13.439-8.9,19.09
		c-3.869,5.648-8.535,10.215-14,13.695c-5.469,3.48-11.535,5.223-18.2,5.223c-8.8,0-15.669-2.824-20.601-8.475
		c-4.934-5.65-7.399-13.209-7.399-22.686c0-7.189,1.031-14.351,3.101-21.485c2.064-7.131,5-13.525,8.799-19.175
		c3.801-5.649,8.4-10.213,13.801-13.696c5.4-3.48,11.5-5.222,18.3-5.222c9.065,0,16.031,2.854,20.899,8.56
		C234.728,14.269,237.162,21.858,237.162,31.33z M223.762,31.79c0-6.49-1.262-11.754-3.784-15.796
		c-2.522-4.042-6.571-6.064-12.147-6.064c-4.646,0-8.793,1.653-12.443,4.955c-3.65,3.301-6.737,7.428-9.26,12.382
		c-2.524,4.954-4.449,10.334-5.774,16.138c-1.328,5.808-1.991,11.217-1.991,16.225c0,6.377,1.229,11.498,3.686,15.369
		c2.455,3.873,6.471,5.809,12.047,5.809c4.777,0,8.993-1.592,12.643-4.781c3.65-3.188,6.734-7.23,9.26-12.125
		c2.521-4.896,4.447-10.219,5.775-15.97C223.096,42.18,223.762,36.801,223.762,31.79z"/>
	<path fill="#E5E5E5" d="M58.666,42.862l19.469,46.655H63.09L48.71,52.157L19.065,89.517H3.358l39.158-46.655L25.04,0.856h15.043
		L52.25,34.283L78.356,0.856h15.706L58.666,42.862z"/>
</g>
</svg>
