<?xml version="1.0" encoding="utf-8"?>
<!-- Generator: Adobe Illustrator 16.0.0, SVG Export Plug-In . SVG Version: 6.00 Build 0)  -->
<!DOCTYPE svg PUBLIC "-//W3C//DTD SVG 1.1//EN" "http://www.w3.org/Graphics/SVG/1.1/DTD/svg11.dtd">
<svg version="1.1" id="Layer_1" xmlns="http://www.w3.org/2000/svg" xmlns:xlink="http://www.w3.org/1999/xlink" x="0px" y="0px"
	 width="263.62px" height="99.21px" viewBox="0 0 263.62 99.21" enable-background="new 0 0 263.62 99.21" xml:space="preserve">
<g>
	<path fill="#FFFFFF" d="M75.027,96.576l-20-39.801l-37.4,39.801h-16.6l48-49.4l-23.4-44.2h14.4l18.2,36.8l34.2-36.8h16.2
		l-44.4,45.8l26.4,47.8H75.027z"/>
	<path fill="#FFFFFF" d="M207.025,98.976c-6.268,0-12.068-1-17.4-3c-5.334-2-9.899-4.766-13.699-8.3
		c-3.801-3.531-6.77-7.801-8.9-12.801c-2.135-5-3.2-10.5-3.2-16.5c0-7.865,1.366-15.299,4.101-22.299c2.73-7,6.565-13.131,11.5-18.4
		c4.932-5.266,10.801-9.431,17.6-12.5c6.801-3.066,14.266-4.6,22.4-4.6c6.4,0,12.23,0.969,17.5,2.9c5.266,1.935,9.801,4.7,13.6,8.3
		c3.801,3.6,6.766,7.869,8.9,12.8c2.131,4.935,3.199,10.4,3.199,16.4c0,8-1.367,15.534-4.1,22.601
		c-2.734,7.068-6.568,13.199-11.5,18.399c-4.934,5.2-10.799,9.335-17.6,12.399C222.625,97.441,215.156,98.976,207.025,98.976z
		 M248.625,41.854c0-4.275-0.664-8.253-1.992-11.928c-1.332-3.675-3.291-6.85-5.885-9.525c-2.594-2.675-5.75-4.781-9.473-6.319
		c-3.725-1.538-7.912-2.306-12.564-2.306c-5.852,0-11.234,1.237-16.154,3.709c-4.918,2.475-9.174,5.816-12.766,10.028
		c-3.59,4.212-6.416,9.091-8.475,14.638c-2.062,5.55-3.091,11.396-3.091,17.546c0,4.278,0.662,8.256,1.993,11.932
		c1.328,3.675,3.289,6.85,5.883,9.525c2.594,2.674,5.719,4.777,9.375,6.314c3.656,1.538,7.809,2.307,12.465,2.307
		c5.98,0,11.465-1.234,16.453-3.709c4.984-2.473,9.271-5.781,12.863-9.926c3.586-4.143,6.381-8.99,8.375-14.54
		C247.625,54.054,248.625,48.138,248.625,41.854z"/>
</g>
</svg>
